solid stlFromUG4
facet normal 0 0 -1
outer loop
vertex -0.5 -0.5 -0.5
vertex -0.5 0.5 -0.5
vertex 0 0 -0.5
endloop
endfacet
facet normal 0 0 -1
outer loop
vertex -0.5 0.5 -0.5
vertex 0.5 0.5 -0.5
vertex 0 0 -0.5
endloop
endfacet
facet normal 0 -0 -1
outer loop
vertex 0.5 0.5 -0.5
vertex 0.5 -0.5 -0.5
vertex 0 0 -0.5
endloop
endfacet
facet normal 0 0 -1
outer loop
vertex 0.5 -0.5 -0.5
vertex -0.5 -0.5 -0.5
vertex 0 0 -0.5
endloop
endfacet
facet normal 0 -1 0
outer loop
vertex -0.5 -0.5 -0.5
vertex 0.5 -0.5 -0.5
vertex 0 -0.5 0
endloop
endfacet
facet normal 0 -1 0
outer loop
vertex 0.5 -0.5 -0.5
vertex 0.5 -0.5 0.5
vertex 0 -0.5 0
endloop
endfacet
facet normal -0 -1 0
outer loop
vertex 0.5 -0.5 0.5
vertex -0.5 -0.5 0.5
vertex 0 -0.5 0
endloop
endfacet
facet normal 0 -1 0
outer loop
vertex -0.5 -0.5 0.5
vertex -0.5 -0.5 -0.5
vertex 0 -0.5 0
endloop
endfacet
facet normal 1 0 0
outer loop
vertex 0.5 -0.5 -0.5
vertex 0.5 0.5 -0.5
vertex 0.5 0 0
endloop
endfacet
facet normal 1 0 -0
outer loop
vertex 0.5 0.5 -0.5
vertex 0.5 0.5 0.5
vertex 0.5 0 0
endloop
endfacet
facet normal 1 0 0
outer loop
vertex 0.5 0.5 0.5
vertex 0.5 -0.5 0.5
vertex 0.5 0 0
endloop
endfacet
facet normal 1 0 0
outer loop
vertex 0.5 -0.5 0.5
vertex 0.5 -0.5 -0.5
vertex 0.5 0 0
endloop
endfacet
facet normal 0 1 0
outer loop
vertex 0.5 0.5 -0.5
vertex -0.5 0.5 -0.5
vertex 0 0.5 0
endloop
endfacet
facet normal 0 1 0
outer loop
vertex -0.5 0.5 -0.5
vertex -0.5 0.5 0.5
vertex 0 0.5 0
endloop
endfacet
facet normal -0 1 0
outer loop
vertex -0.5 0.5 0.5
vertex 0.5 0.5 0.5
vertex 0 0.5 0
endloop
endfacet
facet normal 0 1 0
outer loop
vertex 0.5 0.5 0.5
vertex 0.5 0.5 -0.5
vertex 0 0.5 0
endloop
endfacet
facet normal -1 0 0
outer loop
vertex -0.5 0.5 -0.5
vertex -0.5 -0.5 -0.5
vertex -0.5 0 0
endloop
endfacet
facet normal -1 0 0
outer loop
vertex -0.5 -0.5 -0.5
vertex -0.5 -0.5 0.5
vertex -0.5 0 0
endloop
endfacet
facet normal -1 0 0
outer loop
vertex -0.5 -0.5 0.5
vertex -0.5 0.5 0.5
vertex -0.5 0 0
endloop
endfacet
facet normal -1 0 -0
outer loop
vertex -0.5 0.5 0.5
vertex -0.5 0.5 -0.5
vertex -0.5 0 0
endloop
endfacet
facet normal 0 0 1
outer loop
vertex -0.5 -0.5 0.5
vertex 0.5 -0.5 0.5
vertex 0 0 0.5
endloop
endfacet
facet normal 0 -0 1
outer loop
vertex 0.5 -0.5 0.5
vertex 0.5 0.5 0.5
vertex 0 0 0.5
endloop
endfacet
facet normal 0 0 1
outer loop
vertex 0.5 0.5 0.5
vertex -0.5 0.5 0.5
vertex 0 0 0.5
endloop
endfacet
facet normal 0 0 1
outer loop
vertex -0.5 0.5 0.5
vertex -0.5 -0.5 0.5
vertex 0 0 0.5
endloop
endfacet
facet normal 0 0 -1
outer loop
vertex -0.25 -0.25 -0.25
vertex -0.25 0.25 -0.25
vertex 0 0 -0.25
endloop
endfacet
facet normal 0 0 -1
outer loop
vertex -0.25 0.25 -0.25
vertex 0.25 0.25 -0.25
vertex 0 0 -0.25
endloop
endfacet
facet normal 0 -0 -1
outer loop
vertex 0.25 0.25 -0.25
vertex 0.25 -0.25 -0.25
vertex 0 0 -0.25
endloop
endfacet
facet normal 0 0 -1
outer loop
vertex 0.25 -0.25 -0.25
vertex -0.25 -0.25 -0.25
vertex 0 0 -0.25
endloop
endfacet
facet normal 0 -1 0
outer loop
vertex -0.25 -0.25 -0.25
vertex 0.25 -0.25 -0.25
vertex 0 -0.25 0
endloop
endfacet
facet normal 0 -1 0
outer loop
vertex 0.25 -0.25 -0.25
vertex 0.25 -0.25 0.25
vertex 0 -0.25 0
endloop
endfacet
facet normal -0 -1 0
outer loop
vertex 0.25 -0.25 0.25
vertex -0.25 -0.25 0.25
vertex 0 -0.25 0
endloop
endfacet
facet normal 0 -1 0
outer loop
vertex -0.25 -0.25 0.25
vertex -0.25 -0.25 -0.25
vertex 0 -0.25 0
endloop
endfacet
facet normal 1 0 0
outer loop
vertex 0.25 -0.25 -0.25
vertex 0.25 0.25 -0.25
vertex 0.25 0 0
endloop
endfacet
facet normal 1 0 -0
outer loop
vertex 0.25 0.25 -0.25
vertex 0.25 0.25 0.25
vertex 0.25 0 0
endloop
endfacet
facet normal 1 0 0
outer loop
vertex 0.25 0.25 0.25
vertex 0.25 -0.25 0.25
vertex 0.25 0 0
endloop
endfacet
facet normal 1 0 0
outer loop
vertex 0.25 -0.25 0.25
vertex 0.25 -0.25 -0.25
vertex 0.25 0 0
endloop
endfacet
facet normal 0 1 0
outer loop
vertex 0.25 0.25 -0.25
vertex -0.25 0.25 -0.25
vertex 0 0.25 0
endloop
endfacet
facet normal 0 1 0
outer loop
vertex -0.25 0.25 -0.25
vertex -0.25 0.25 0.25
vertex 0 0.25 0
endloop
endfacet
facet normal -0 1 0
outer loop
vertex -0.25 0.25 0.25
vertex 0.25 0.25 0.25
vertex 0 0.25 0
endloop
endfacet
facet normal 0 1 0
outer loop
vertex 0.25 0.25 0.25
vertex 0.25 0.25 -0.25
vertex 0 0.25 0
endloop
endfacet
facet normal -1 0 0
outer loop
vertex -0.25 0.25 -0.25
vertex -0.25 -0.25 -0.25
vertex -0.25 0 0
endloop
endfacet
facet normal -1 0 0
outer loop
vertex -0.25 -0.25 -0.25
vertex -0.25 -0.25 0.25
vertex -0.25 0 0
endloop
endfacet
facet normal -1 0 0
outer loop
vertex -0.25 -0.25 0.25
vertex -0.25 0.25 0.25
vertex -0.25 0 0
endloop
endfacet
facet normal -1 0 -0
outer loop
vertex -0.25 0.25 0.25
vertex -0.25 0.25 -0.25
vertex -0.25 0 0
endloop
endfacet
facet normal 0 0 1
outer loop
vertex -0.25 -0.25 0.25
vertex 0.25 -0.25 0.25
vertex 0 0 0.25
endloop
endfacet
facet normal 0 -0 1
outer loop
vertex 0.25 -0.25 0.25
vertex 0.25 0.25 0.25
vertex 0 0 0.25
endloop
endfacet
facet normal 0 0 1
outer loop
vertex 0.25 0.25 0.25
vertex -0.25 0.25 0.25
vertex 0 0 0.25
endloop
endfacet
facet normal 0 0 1
outer loop
vertex -0.25 0.25 0.25
vertex -0.25 -0.25 0.25
vertex 0 0 0.25
endloop
endfacet
facet normal 0 0 -1
outer loop
vertex -0.125 -0.125 -0.125
vertex -0.125 0.125 -0.125
vertex 0 0 -0.125
endloop
endfacet
facet normal 0 0 -1
outer loop
vertex -0.125 0.125 -0.125
vertex 0.125 0.125 -0.125
vertex 0 0 -0.125
endloop
endfacet
facet normal 0 -0 -1
outer loop
vertex 0.125 0.125 -0.125
vertex 0.125 -0.125 -0.125
vertex 0 0 -0.125
endloop
endfacet
facet normal 0 0 -1
outer loop
vertex 0.125 -0.125 -0.125
vertex -0.125 -0.125 -0.125
vertex 0 0 -0.125
endloop
endfacet
facet normal 0 -1 0
outer loop
vertex -0.125 -0.125 -0.125
vertex 0.125 -0.125 -0.125
vertex 0 -0.125 0
endloop
endfacet
facet normal 0 -1 0
outer loop
vertex 0.125 -0.125 -0.125
vertex 0.125 -0.125 0.125
vertex 0 -0.125 0
endloop
endfacet
facet normal -0 -1 0
outer loop
vertex 0.125 -0.125 0.125
vertex -0.125 -0.125 0.125
vertex 0 -0.125 0
endloop
endfacet
facet normal 0 -1 0
outer loop
vertex -0.125 -0.125 0.125
vertex -0.125 -0.125 -0.125
vertex 0 -0.125 0
endloop
endfacet
facet normal 1 0 0
outer loop
vertex 0.125 -0.125 -0.125
vertex 0.125 0.125 -0.125
vertex 0.125 0 0
endloop
endfacet
facet normal 1 0 -0
outer loop
vertex 0.125 0.125 -0.125
vertex 0.125 0.125 0.125
vertex 0.125 0 0
endloop
endfacet
facet normal 1 0 0
outer loop
vertex 0.125 0.125 0.125
vertex 0.125 -0.125 0.125
vertex 0.125 0 0
endloop
endfacet
facet normal 1 0 0
outer loop
vertex 0.125 -0.125 0.125
vertex 0.125 -0.125 -0.125
vertex 0.125 0 0
endloop
endfacet
facet normal 0 1 0
outer loop
vertex 0.125 0.125 -0.125
vertex -0.125 0.125 -0.125
vertex 0 0.125 0
endloop
endfacet
facet normal 0 1 0
outer loop
vertex -0.125 0.125 -0.125
vertex -0.125 0.125 0.125
vertex 0 0.125 0
endloop
endfacet
facet normal -0 1 0
outer loop
vertex -0.125 0.125 0.125
vertex 0.125 0.125 0.125
vertex 0 0.125 0
endloop
endfacet
facet normal 0 1 0
outer loop
vertex 0.125 0.125 0.125
vertex 0.125 0.125 -0.125
vertex 0 0.125 0
endloop
endfacet
facet normal -1 0 0
outer loop
vertex -0.125 0.125 -0.125
vertex -0.125 -0.125 -0.125
vertex -0.125 0 0
endloop
endfacet
facet normal -1 0 0
outer loop
vertex -0.125 -0.125 -0.125
vertex -0.125 -0.125 0.125
vertex -0.125 0 0
endloop
endfacet
facet normal -1 0 0
outer loop
vertex -0.125 -0.125 0.125
vertex -0.125 0.125 0.125
vertex -0.125 0 0
endloop
endfacet
facet normal -1 0 -0
outer loop
vertex -0.125 0.125 0.125
vertex -0.125 0.125 -0.125
vertex -0.125 0 0
endloop
endfacet
facet normal 0 0 1
outer loop
vertex -0.125 -0.125 0.125
vertex 0.125 -0.125 0.125
vertex 0 0 0.125
endloop
endfacet
facet normal 0 -0 1
outer loop
vertex 0.125 -0.125 0.125
vertex 0.125 0.125 0.125
vertex 0 0 0.125
endloop
endfacet
facet normal 0 0 1
outer loop
vertex 0.125 0.125 0.125
vertex -0.125 0.125 0.125
vertex 0 0 0.125
endloop
endfacet
facet normal 0 0 1
outer loop
vertex -0.125 0.125 0.125
vertex -0.125 -0.125 0.125
vertex 0 0 0.125
endloop
endfacet
facet normal 0 0 -1
outer loop
vertex -0.0625 -0.0625 -0.0625
vertex -0.0625 0.0625 -0.0625
vertex 0 0 -0.0625
endloop
endfacet
facet normal 0 0 -1
outer loop
vertex -0.0625 0.0625 -0.0625
vertex 0.0625 0.0625 -0.0625
vertex 0 0 -0.0625
endloop
endfacet
facet normal 0 -0 -1
outer loop
vertex 0.0625 0.0625 -0.0625
vertex 0.0625 -0.0625 -0.0625
vertex 0 0 -0.0625
endloop
endfacet
facet normal 0 0 -1
outer loop
vertex 0.0625 -0.0625 -0.0625
vertex -0.0625 -0.0625 -0.0625
vertex 0 0 -0.0625
endloop
endfacet
facet normal 0 -1 0
outer loop
vertex -0.0625 -0.0625 -0.0625
vertex 0.0625 -0.0625 -0.0625
vertex 0 -0.0625 0
endloop
endfacet
facet normal 0 -1 0
outer loop
vertex 0.0625 -0.0625 -0.0625
vertex 0.0625 -0.0625 0.0625
vertex 0 -0.0625 0
endloop
endfacet
facet normal -0 -1 0
outer loop
vertex 0.0625 -0.0625 0.0625
vertex -0.0625 -0.0625 0.0625
vertex 0 -0.0625 0
endloop
endfacet
facet normal 0 -1 0
outer loop
vertex -0.0625 -0.0625 0.0625
vertex -0.0625 -0.0625 -0.0625
vertex 0 -0.0625 0
endloop
endfacet
facet normal 1 0 0
outer loop
vertex 0.0625 -0.0625 -0.0625
vertex 0.0625 0.0625 -0.0625
vertex 0.0625 0 0
endloop
endfacet
facet normal 1 0 -0
outer loop
vertex 0.0625 0.0625 -0.0625
vertex 0.0625 0.0625 0.0625
vertex 0.0625 0 0
endloop
endfacet
facet normal 1 0 0
outer loop
vertex 0.0625 0.0625 0.0625
vertex 0.0625 -0.0625 0.0625
vertex 0.0625 0 0
endloop
endfacet
facet normal 1 0 0
outer loop
vertex 0.0625 -0.0625 0.0625
vertex 0.0625 -0.0625 -0.0625
vertex 0.0625 0 0
endloop
endfacet
facet normal 0 1 0
outer loop
vertex 0.0625 0.0625 -0.0625
vertex -0.0625 0.0625 -0.0625
vertex 0 0.0625 0
endloop
endfacet
facet normal 0 1 0
outer loop
vertex -0.0625 0.0625 -0.0625
vertex -0.0625 0.0625 0.0625
vertex 0 0.0625 0
endloop
endfacet
facet normal -0 1 0
outer loop
vertex -0.0625 0.0625 0.0625
vertex 0.0625 0.0625 0.0625
vertex 0 0.0625 0
endloop
endfacet
facet normal 0 1 0
outer loop
vertex 0.0625 0.0625 0.0625
vertex 0.0625 0.0625 -0.0625
vertex 0 0.0625 0
endloop
endfacet
facet normal -1 0 0
outer loop
vertex -0.0625 0.0625 -0.0625
vertex -0.0625 -0.0625 -0.0625
vertex -0.0625 0 0
endloop
endfacet
facet normal -1 0 0
outer loop
vertex -0.0625 -0.0625 -0.0625
vertex -0.0625 -0.0625 0.0625
vertex -0.0625 0 0
endloop
endfacet
facet normal -1 0 0
outer loop
vertex -0.0625 -0.0625 0.0625
vertex -0.0625 0.0625 0.0625
vertex -0.0625 0 0
endloop
endfacet
facet normal -1 0 -0
outer loop
vertex -0.0625 0.0625 0.0625
vertex -0.0625 0.0625 -0.0625
vertex -0.0625 0 0
endloop
endfacet
facet normal 0 0 1
outer loop
vertex -0.0625 -0.0625 0.0625
vertex 0.0625 -0.0625 0.0625
vertex 0 0 0.0625
endloop
endfacet
facet normal 0 -0 1
outer loop
vertex 0.0625 -0.0625 0.0625
vertex 0.0625 0.0625 0.0625
vertex 0 0 0.0625
endloop
endfacet
facet normal 0 0 1
outer loop
vertex 0.0625 0.0625 0.0625
vertex -0.0625 0.0625 0.0625
vertex 0 0 0.0625
endloop
endfacet
facet normal 0 0 1
outer loop
vertex -0.0625 0.0625 0.0625
vertex -0.0625 -0.0625 0.0625
vertex 0 0 0.0625
endloop
endfacet
endsolid stlFromUG4
